<mxfile host="app.diagrams.net" modified="2024-05-02T12:18:41.026Z" agent="Mozilla/5.0 (Windows NT 10.0; Win64; x64) AppleWebKit/537.36 (KHTML, like Gecko) Chrome/124.0.0.0 Safari/537.36" version="24.3.1" etag="T2rawlm7JT_NeVOREC7l" type="github">
  <diagram name="Page-1" id="zjTUxiugMz7jWELwP4Rg">
    <mxGraphModel>
      <root>
        <mxCell id="0" />
        <mxCell id="1" parent="0" />
      </root>
    </mxGraphModel>
  </diagram>
</mxfile>
